<svg xmlns="http://www.w3.org/2000/svg" xmlns:xlink="http://www.w3.org/1999/xlink" width="12" height="12" viewBox="0 0 12 12">
  <defs>
    <clipPath id="clip-path">
      <rect id="Rectangle_3" data-name="Rectangle 3" width="12" height="12" transform="translate(344 13)" fill="#707070"/>
    </clipPath>
  </defs>
  <g id="Mask_Group_70" data-name="Mask Group 70" transform="translate(-344 -13)" clip-path="url(#clip-path)">
    <g id="time" transform="translate(344 13)">
      <path id="Path_187" data-name="Path 187" d="M6,0a6,6,0,1,0,6,6A6.007,6.007,0,0,0,6,0ZM8.854,9.1a.5.5,0,0,1-.707,0l-2.5-2.5A.5.5,0,0,1,5.5,6.25V3a.5.5,0,0,1,1,0V6.043L8.854,8.4a.5.5,0,0,1,0,.707Zm0,0" fill="#707070"/>
    </g>
  </g>
</svg>
