<svg xmlns="http://www.w3.org/2000/svg" xmlns:xlink="http://www.w3.org/1999/xlink" width="16" height="16" viewBox="0 0 16 16">
  <defs>
    <clipPath id="clip-path">
      <rect id="Rectangle_1224" data-name="Rectangle 1224" width="16" height="16" transform="translate(114 149)" stroke="#7d7d7d" stroke-width="1"/>
    </clipPath>
  </defs>
  <g id="Mask_Group_69" data-name="Mask Group 69" transform="translate(-114 -149)" clip-path="url(#clip-path)">
    <g id="menu" transform="translate(114 151.008)">
      <g id="Group_1939" data-name="Group 1939" transform="translate(0 0)">
        <path id="Path_184" data-name="Path 184" d="M.973,3.7H15.028a.973.973,0,0,0,0-1.945H.973a.973.973,0,1,0,0,1.945Z" transform="translate(0 -1.757)"/>
        <path id="Path_185" data-name="Path 185" d="M15.028,6.149H.973a.973.973,0,1,0,0,1.945H15.028a.973.973,0,0,0,0-1.945Z" transform="translate(0 -1.129)"/>
        <path id="Path_186" data-name="Path 186" d="M15.028,10.541H.973a.973.973,0,0,0,0,1.945H15.028a.973.973,0,0,0,0-1.945Z" transform="translate(0 -0.502)"/>
      </g>
    </g>
  </g>
</svg>
