<svg xmlns="http://www.w3.org/2000/svg" xmlns:xlink="http://www.w3.org/1999/xlink" width="14" height="14" viewBox="0 0 14 14">
  <defs>
    <clipPath id="clip-path">
      <rect id="Rectangle_1224" data-name="Rectangle 1224" width="14" height="14" transform="translate(114 149)" fill="#fff" stroke="#707070" stroke-width="1"/>
    </clipPath>
  </defs>
  <g id="Mask_Group_69" data-name="Mask Group 69" transform="translate(-114 -149)" clip-path="url(#clip-path)">
    <g id="menu" transform="translate(114 149)">
      <g id="Group_1939" data-name="Group 1939">
        <path id="Path_184" data-name="Path 184" d="M.851,3.459h12.3a.851.851,0,0,0,0-1.7H.851a.851.851,0,1,0,0,1.7Z" fill="#fff"/>
        <path id="Path_185" data-name="Path 185" d="M13.149,6.149H.851a.851.851,0,1,0,0,1.7h12.3a.851.851,0,0,0,0-1.7Z" fill="#fff"/>
        <path id="Path_186" data-name="Path 186" d="M13.149,10.541H.851a.851.851,0,0,0,0,1.7h12.3a.851.851,0,0,0,0-1.7Z" fill="#fff"/>
      </g>
    </g>
  </g>
</svg>
