<svg xmlns="http://www.w3.org/2000/svg" xmlns:xlink="http://www.w3.org/1999/xlink" width="12" height="12" viewBox="0 0 12 12">
  <defs>
    <clipPath id="clip-path">
      <rect id="Rectangle_2" data-name="Rectangle 2" width="12" height="12" fill="#1ba370" stroke="#707070" stroke-width="1"/>
    </clipPath>
  </defs>
  <g id="phone" clip-path="url(#clip-path)">
    <g id="phone-2" data-name="phone" transform="translate(0.013 0)">
      <g id="Group_2" data-name="Group 2">
        <g id="Group_1" data-name="Group 1">
          <path id="Path_1" data-name="Path 1" d="M11.675,8.807,10,7.132a1.114,1.114,0,0,0-1.854.419,1.14,1.14,0,0,1-1.316.718,5.164,5.164,0,0,1-3.11-3.11,1.084,1.084,0,0,1,.718-1.316,1.114,1.114,0,0,0,.419-1.854L3.183.314a1.2,1.2,0,0,0-1.615,0L.432,1.45C-.7,2.647.551,5.816,3.362,8.627s5.981,4.127,7.177,2.931l1.136-1.136A1.194,1.194,0,0,0,11.675,8.807Z" transform="translate(-0.015 0)" fill="#1ba370"/>
        </g>
      </g>
    </g>
  </g>
</svg>
